<?xml version="1.0" encoding="iso-8859-1"?>
<!-- Generator: Adobe Illustrator 16.0.0, SVG Export Plug-In . SVG Version: 6.00 Build 0)  -->
<!DOCTYPE svg PUBLIC "-//W3C//DTD SVG 1.1//EN" "http://www.w3.org/Graphics/SVG/1.1/DTD/svg11.dtd">
<svg xmlns="http://www.w3.org/2000/svg" xmlns:xlink="http://www.w3.org/1999/xlink" version="1.1" id="Capa_1" x="0px" y="0px" width="512px" height="512px" viewBox="0 0 32 32" style="enable-background:new 0 0 32 32;" xml:space="preserve">
<g>
	<path d="M28.862,16.294c-0.162,0-0.292,0.132-0.292,0.295c0,0.08,0.031,0.152,0.083,0.205c-0.176,0.142-0.492,0.257-0.823,0.375   c-0.687,0.248-1.463,0.527-1.64,1.188c-0.25,0.94-1.424,2.24-1.753,2.592c-0.021-0.014-0.038-0.026-0.06-0.039   c-0.003,0.001-0.005,0.002-0.007,0.004c-0.016-0.014-0.032-0.023-0.051-0.035c0-0.001-0.002-0.002-0.003-0.002   c0.255-0.402,0.928-1.58,1.093-2.953c0.148-1.25,1.274-1.921,1.804-2.17c0.051,0.09,0.144,0.153,0.254,0.153   c0.162,0,0.294-0.132,0.294-0.294c0-0.162-0.132-0.295-0.294-0.295s-0.295,0.133-0.295,0.295c0,0.004,0.003,0.008,0.004,0.013   c-0.544,0.253-1.74,0.954-1.898,2.282c-0.16,1.35-0.824,2.506-1.072,2.898c-0.135-0.074-0.286-0.119-0.451-0.119   c-0.454,0-0.831,0.31-0.942,0.728l-0.984,0.253c0,0,1.966-15.779-10.563-21.668c-1.285,0.309-0.4,7.394-0.611,8.268   c-0.211,0.875-3.641,5.634-0.813,7.621c2.62,1.841,9.123,6.261,10.063,6.902c0.075,0.051,0.319,0.061,0.114,0.078   s-1.894,0.333-3.886-1.799c-4.472-5.706-12.319-5.438-12.884,0.457c0.408,2.84,1.306,5.229,0.354,6.5   c-0.951,1.271-1.151,2.799,0.244,3.264c4.781,2.989,14.062-8.073,14.926-7.032c-4.809,4.698-2.418,7.888-1.544,7.736   c0.875-0.147,0.232-6.244,2.009-6.808c1.512-0.217,3.727-2.942,3.727-2.942l0.001-0.003c0.178,0.244,0.465,0.404,0.79,0.404   c0.54,0,0.979-0.438,0.979-0.979c0-0.098-0.019-0.189-0.045-0.279c-0.014-0.049-0.039-0.14-0.077-0.186   c-0.026-0.051-0.06-0.1-0.095-0.145l0.002-0.002c0.016-0.01,0.029-0.019,0.045-0.025c-0.004-0.004-0.008-0.006-0.013-0.008   c0.356-0.381,1.511-1.664,1.769-2.633c0.156-0.593,0.9-0.859,1.555-1.096c0.375-0.136,0.713-0.259,0.899-0.431   c0.027,0.01,0.057,0.019,0.088,0.019c0.163,0,0.295-0.132,0.295-0.294C29.157,16.426,29.025,16.294,28.862,16.294z M5.395,20.439   c0.707,0,1.279,0.574,1.279,1.281c0,0.706-0.573,1.278-1.279,1.278c-0.706,0-1.279-0.573-1.279-1.278   C4.115,21.014,4.688,20.439,5.395,20.439z M5.49,24.193c0,0.256-0.207,0.463-0.462,0.463s-0.463-0.207-0.463-0.463   c0-0.254,0.208-0.461,0.463-0.461C5.283,23.73,5.49,23.938,5.49,24.193z M5.029,30.172c-0.341,0-0.617-0.275-0.617-0.617   c0-0.341,0.276-0.617,0.617-0.617c0.34,0,0.617,0.276,0.617,0.617C5.646,29.896,5.369,30.172,5.029,30.172z M6.835,30.789   c-0.341,0-0.617-0.275-0.617-0.617c0-0.341,0.276-0.617,0.617-0.617c0.341,0,0.617,0.276,0.617,0.617   C7.452,30.514,7.176,30.789,6.835,30.789z M8.743,30.172c-0.341,0-0.617-0.275-0.617-0.617c0-0.341,0.276-0.617,0.617-0.617   c0.341,0,0.617,0.276,0.617,0.617C9.36,29.896,9.084,30.172,8.743,30.172z M19.255,23.816c0,0-2.602,0.043-2.925,0.108   c-0.452,0.021-1.484,1.699-1.936,2.839c-0.667-0.688,0.753-2.925,0.753-2.925s-0.495,0-0.753,0   c-1.097,0.774-2.065,2.903-2.129,3.806c-0.667-1.203,0.301-3.226,1.162-3.871c-0.301,0.064-0.752-0.106-1.075-0.086   c-1.68-0.011-2.28,2.924-1.936,4.91c-0.946-0.867-1.548-2.932,0.495-4.867c-0.387-0.15-4.967,0.086-5.505,2.709   c-0.409,2.086,1.779,1.595,1.8,1.144s-0.187-0.885-0.552-0.69c-0.366,0.192-0.409-0.281,0.021-0.688   c0.43-0.408,2.172,1.269,0.538,2.28c-0.581,0.301-3.85,0.192-2.172-2.709c0.309-0.41,1.505-2.366,4.32-2.625   c-3.503-1.676-3.051-3.698-2.836-4.322c0.215-0.624,2.512-1.957,2.836-0.387c0.325,1.57-1.137,1.699-1.417,1.312   c-0.279-0.387,0.15-0.042,0.473-0.106c0.323-0.064,1.265-0.881,0.258-1.312s-2.07,0.473-1.44,2.193   c0.645,2.13,4.774,2.709,4.774,2.709s-0.989-1.44-3.118-2.364c0.903-0.323,1.312-0.538,1.312-1.808   c0.236,1.27,2.795,4.216,2.795,4.216l1.333-0.044c0,0-3.238-2.655-2.581-4.666c1.054,0.623,1.054,0.623,1.441,0.795   c-0.452,1.505,1.785,3.764,1.785,3.764l1.025,0.172c0,0-1.68-1.609-1.434-2.795c0.516,0.516,0.946,0.73,1.333,0.989   c-0.495,0.387,0.645,1.806,0.645,1.806l0.902,0.108c0,0-0.762-0.968-0.624-1.269c0.409,0.43,0.416,0.295,0.538,0.408   c0.079,0.309,0.495,0.86,0.495,0.86l1.763,0.043L19.255,23.816z M18.169,7.065c0.351,0,0.634,0.284,0.634,0.634   c0,0.351-0.284,0.634-0.634,0.634c-0.351,0-0.635-0.283-0.635-0.634C17.535,7.349,17.819,7.065,18.169,7.065z M11.47,6.957   c0,0-0.107-1.935,0.172-2.43c0.688,2.279,2.646,3.806,2.646,3.806L11.47,6.957z M12.524,7.925c0,0.262-0.212,0.474-0.473,0.474   c-0.262,0-0.474-0.212-0.474-0.474c0-0.262,0.212-0.473,0.474-0.473C12.312,7.452,12.524,7.664,12.524,7.925z M11.32,8.592h3.204   c0,0-2.645,0.903-4,2.322C10.825,10.183,11.32,8.592,11.32,8.592z M21.266,21.73c0,0-0.764-1.461-2.549-0.806   c-0.172-0.161-0.642-0.168-0.807-0.646c-0.032-0.828,3.129-0.064,3.129-0.064s-2.58-1.344-4.097-0.484   c-0.504-0.301-0.919-0.521-1.226-0.902s5.162,0.291,5.162,0.291s-2.509-1.984-5.494-1.279c-1.248,0.29-5.27-1.527-3.12-5.301   c-0.654,3.231,1.958,4.098,1.958,4.098l6.333,1.547c0,0-0.011-2.859-0.581-4.677c-1.968-6.162-5.113-3.796-5.838-3.43   c-2.516,2,2.129,5.269,3.548,2.333c0.322-0.205,0.366-0.355,0.258,0.581c-2.795,4.85-6.149,0.14-5.226-2.032   c-1.291,0.667-1.968,4.838-1.968,4.838s-1.452,0.549-1.387-1.387c0.065-1.936,4.71-5.774,6.452-5.678   c-3.484-0.742-4.323-7.42-4.323-7.42s1.693,0.548,2.29,0.742c-0.064,1,0.323,2.903,0.323,3c0,0.097,0.129-2.291,0.355-2.162   c0.226,0.129,1.161,0.71,0.903,0.581c-1.164,0.473-0.903,2.678-0.903,2.678s0.555-2.45,1-2.355c0.445,0.095,0.54,0.391,0.542,0.581   c-1.546,0.8-0.768,3.032-0.768,3.129c0,0.097-0.094-2.073,0.516-2.226c0.611-0.153,2.46,0.604,0.936,1.774   c-0.509,0.054-0.74-0.236-0.226-0.452c0.514-0.216-0.495-1.473-0.794-0.435c-0.299,1.038,0.321,2.188,1.02,2.371   C22.675,10.398,21.266,21.73,21.266,21.73z M17.104,15.215c0-0.724,0.587-1.312,1.312-1.312s1.312,0.587,1.312,1.312   c0,0.725-0.588,1.312-1.312,1.312C17.692,16.527,17.104,15.94,17.104,15.215z" fill="#45ffef"/>
</g>
<g>
</g>
<g>
</g>
<g>
</g>
<g>
</g>
<g>
</g>
<g>
</g>
<g>
</g>
<g>
</g>
<g>
</g>
<g>
</g>
<g>
</g>
<g>
</g>
<g>
</g>
<g>
</g>
<g>
</g>
</svg>
